#N canvas 1022 426 454 304 10;
#X obj 65 177 print;
#X obj 56 43 inlet;
#X obj 199 95 inlet;
#X floatatom 47 85 5 0 0 0 - - -;
#X obj 85 118 * 1000;
#X msg 180 151 my 5 toes;
#X connect 1 0 3 0;
#X connect 2 0 0 0;
#X connect 2 0 5 0;
#X connect 3 0 4 0;
#X connect 4 0 0 0;
#X connect 5 0 0 0;
