#N canvas 655 268 673 383 10;
#X obj 49 61 inlet;
#X obj 49 88 print bang!;
#X obj 175 62 inlet;
#X obj 175 87 print;
#X obj 290 62 inlet;
#X obj 290 87 select foo;
#X obj 290 113 print bar;
#X obj 347 136 print GET OUT;
#X text 49 38 0;
#X text 175 38 1;
#X text 290 36 2;
#X msg 93 199 this is a test list object 23 bang;
#X connect 0 0 1 0;
#X connect 2 0 3 0;
#X connect 4 0 5 0;
#X connect 5 0 6 0;
#X connect 5 1 7 0;
