#N canvas 0 22 454 304 10;
#X obj 86 51 metro 100;
#X obj 86 78 bng 15 250 50 0 empty empty empty 0 -6 0 8 -262144 -1
-1;
#X obj 80 21 loadbang;
#X obj 83 106 print;
#X connect 0 0 1 0;
#X connect 1 0 3 0;
#X connect 2 0 0 0;
